<?xml version="1.0" encoding="UTF-8" standalone="no"?>
<!-- Created with Inkscape (http://www.inkscape.org/) -->
<svg
   xmlns:dc="http://purl.org/dc/elements/1.1/"
   xmlns:cc="http://web.resource.org/cc/"
   xmlns:rdf="http://www.w3.org/1999/02/22-rdf-syntax-ns#"
   xmlns:svg="http://www.w3.org/2000/svg"
   xmlns="http://www.w3.org/2000/svg"
   xmlns:sodipodi="http://sodipodi.sourceforge.net/DTD/sodipodi-0.dtd"
   xmlns:inkscape="http://www.inkscape.org/namespaces/inkscape"
   id="svg1923"
   sodipodi:version="0.32"
   inkscape:version="0.44"
   width="500"
   height="765"
   version="1.0"
   sodipodi:docbase="C:\Documents and Settings\Administrator\My Documents\My Pictures\vikipedi"
   sodipodi:docname="Cylinder.svg">
  <metadata
     id="metadata1928">
    <rdf:RDF>
      <cc:Work
         rdf:about="">
        <dc:format>image/svg+xml</dc:format>
        <dc:type
           rdf:resource="http://purl.org/dc/dcmitype/StillImage" />
      </cc:Work>
    </rdf:RDF>
  </metadata>
  <defs
     id="defs1926" />
  <sodipodi:namedview
     inkscape:window-height="744"
     inkscape:window-width="1108"
     inkscape:pageshadow="2"
     inkscape:pageopacity="0.0"
     guidetolerance="10.0"
     gridtolerance="10.0"
     objecttolerance="10.0"
     borderopacity="1.0"
     bordercolor="#666666"
     pagecolor="#ffffff"
     id="base"
     inkscape:zoom="0.69693923"
     inkscape:cx="250"
     inkscape:cy="382.89305"
     inkscape:window-x="2062"
     inkscape:window-y="186"
     inkscape:current-layer="svg1923" />
  <path
     id="path1934"
     style="fill:none;fill-opacity:1;fill-rule:evenodd;stroke:black;stroke-width:12.96203136;stroke-linecap:butt;stroke-linejoin:round;stroke-miterlimit:4;stroke-dashoffset:0;stroke-opacity:1"
     d="M 410.80926,171.89726 C 410.80926,204.24175 322.48539,231.07508 215.09378,231.07508 C 107.70215,231.07508 17.630105,204.82448 17.630105,172.47999 C 17.630105,140.13549 107.70215,113.88489 215.09378,113.88489 C 322.48539,113.88489 410.80926,139.55276 410.80926,171.89726 z M 410.82343,171.78262 L 411.58145,680.79948 C 411.58145,709.25077 323.71608,743.7014 215.4534,743.7014 C 107.19071,743.7014 17.213242,710.19742 17.213242,681.74613 L 17.481848,172.36534"
     sodipodi:nodetypes="cssscccscc" />
  <path
     style="fill:none;fill-rule:evenodd;stroke:black;stroke-width:1px;stroke-linecap:butt;stroke-linejoin:miter;stroke-opacity:1"
     d="M 251.45664,67.665172 L 413.23545,67.665172 L 413.23545,106.406 L 413.23545,36.098575 M 17.218144,104.97115 L 17.218144,34.66373 L 18.652989,67.665172 L 168.95303,67.665172"
     id="path3728"
     sodipodi:nodetypes="cccccccc" />
  <path
     transform="scale(1.152543,0.867647)"
     style="font-size:46.17399216px;font-style:normal;font-weight:normal;line-height:125%;fill:black;fill-opacity:1;stroke:none;stroke-width:1px;stroke-linecap:butt;stroke-linejoin:miter;stroke-opacity:1;font-family:Bitstream Vera Sans"
     d="M 201.82943,47.372825 L 192.42317,79.638469 C 191.91273,81.388475 191.65752,82.536912 191.65754,83.083784 C 191.65752,83.266079 191.735,83.439256 191.88997,83.603316 C 192.04489,83.767381 192.2044,83.849412 192.36848,83.84941 C 192.60544,83.849412 192.88799,83.730922 193.21614,83.493941 C 193.83591,83.056443 194.87497,81.962694 196.33333,80.212689 L 197.26302,80.786908 C 195.95049,82.609829 194.62432,84.086391 193.2845,85.216598 C 191.94463,86.346807 190.69138,86.911911 189.52473,86.911911 C 188.90492,86.911911 188.3945,86.693161 187.99348,86.255661 C 187.59242,85.818161 187.3919,85.19837 187.39192,84.396285 C 187.3919,83.357225 187.66534,81.962694 188.21223,80.212689 L 189.27864,76.822061 C 186.63539,80.905403 184.22914,83.730922 182.05988,85.298629 C 180.56508,86.374151 179.13409,86.911911 177.76691,86.911911 C 176.38149,86.911911 175.17381,86.296677 174.14386,85.066207 C 173.11391,83.83574 172.59894,82.163215 172.59894,80.048626 C 172.59894,77.332487 173.46482,74.434051 175.1966,71.353308 C 176.92836,68.272595 179.21612,65.766086 182.05988,63.833772 C 184.30206,62.284316 186.36195,61.509577 188.23957,61.509552 C 189.22393,61.509577 190.07159,61.710098 190.78254,62.111115 C 191.49346,62.512181 192.19528,63.177545 192.88801,64.10721 L 195.5677,54.591579 C 195.7682,53.917132 195.93226,53.379372 196.05989,52.978297 C 196.27862,52.249164 196.38799,51.647601 196.38802,51.173608 C 196.38799,50.790831 196.25127,50.471821 195.97786,50.216576 C 195.59502,49.906717 195.10284,49.751769 194.5013,49.751732 C 194.082,49.751769 193.38929,49.815571 192.42317,49.943139 L 192.42317,48.931419 L 201.82943,47.372825 z M 191.68489,66.786899 C 191.68487,65.620252 191.34763,64.681451 190.67317,63.970491 C 189.99867,63.259576 189.1419,62.904108 188.10285,62.904084 C 185.80596,62.904108 183.41339,64.79994 180.92512,68.591588 C 178.43683,72.383271 177.19269,76.010873 177.19269,79.474407 C 177.19269,80.841601 177.49347,81.88522 178.09504,82.605268 C 178.69659,83.325324 179.41664,83.68535 180.25519,83.685347 C 182.15102,83.68535 184.52992,81.634569 187.39192,77.532999 C 190.25388,73.431447 191.68487,69.849417 191.68489,66.786899 L 191.68489,66.786899 z "
     id="text3730" />
  <path
     style="fill:none;fill-rule:evenodd;stroke:black;stroke-width:1px;stroke-linecap:butt;stroke-linejoin:miter;stroke-opacity:1"
     d="M 462.12855,483.4116 L 462.84597,687.51835 L 488.67319,687.51835 L 431.27937,687.51835 M 429.84453,165.23465 L 487.23834,165.23465 L 459.97628,165.23465 L 459.97627,374.00465"
     id="path3734"
     sodipodi:nodetypes="cccccccc" />
  <path
     style="font-size:64px;font-style:italic;font-variant:normal;font-weight:normal;font-stretch:normal;text-align:start;line-height:125%;writing-mode:lr-tb;text-anchor:start;fill:black;fill-opacity:1;stroke:none;stroke-width:1px;stroke-linecap:butt;stroke-linejoin:miter;stroke-opacity:1;font-family:Times New Roman"
     d="M 462.14847,406.33139 L 453.36722,436.67514 C 457.15887,430.96683 460.1172,427.17516 462.24222,425.30014 C 464.3672,423.42517 466.39844,422.48767 468.33597,422.48764 C 469.33594,422.48767 470.16927,422.83142 470.83597,423.51889 C 471.50261,424.20642 471.83594,425.12308 471.83597,426.26889 C 471.83594,427.64391 471.54427,429.31058 470.96097,431.26889 L 467.14847,444.36264 C 466.66928,445.94598 466.42969,446.82098 466.42972,446.98764 C 466.42969,447.27931 466.51824,447.51889 466.69534,447.70639 C 466.8724,447.89389 467.07553,447.98764 467.30472,447.98764 C 467.57553,447.98764 467.88803,447.85223 468.24222,447.58139 C 469.42969,446.66473 470.60677,445.3939 471.77347,443.76889 L 472.74222,444.36264 C 472.03386,445.46681 471.04948,446.68035 469.78909,448.00327 C 468.52865,449.32618 467.44532,450.24285 466.53909,450.75327 C 465.63282,451.26368 464.82553,451.51889 464.11722,451.51889 C 463.34636,451.51889 462.71616,451.2741 462.22659,450.78452 C 461.73699,450.29493 461.4922,449.66472 461.49222,448.89389 C 461.4922,447.97723 461.85678,446.26889 462.58597,443.76889 L 466.17972,431.26889 C 466.63803,429.70641 466.86719,428.47725 466.86722,427.58139 C 466.86719,427.16475 466.73699,426.83141 466.47659,426.58139 C 466.21615,426.33141 465.87761,426.20641 465.46097,426.20639 C 464.85678,426.20641 464.16928,426.43558 463.39847,426.89389 C 461.98178,427.76891 460.34637,429.39391 458.49222,431.76889 C 457.9922,432.41474 456.32554,435.01891 453.49222,439.58139 C 452.61721,441.03973 451.89846,442.63348 451.33597,444.36264 L 449.33597,450.76889 L 444.64847,450.76889 L 454.92972,415.01889 L 456.02347,411.14389 C 456.02346,410.60226 455.7995,410.1231 455.35159,409.70639 C 454.90366,409.28977 454.35679,409.08143 453.71097,409.08139 C 453.33596,409.08143 452.76304,409.14393 451.99222,409.26889 L 451.33597,409.36264 L 451.33597,408.14389 L 462.14847,406.33139 z "
     id="text3736" />
</svg>
